<svg width="12" height="12" viewBox="0 0 12 12" fill="none" xmlns="http://www.w3.org/2000/svg">
<g id="upload2">
<path id="Vector" d="M2.25002 1.875L2.25002 10.125C2.25002 10.2345 2.21489 10.3244 2.14464 10.3946C2.07439 10.4649 1.98452 10.5 1.87502 10.5C1.76552 10.5 1.67564 10.4649 1.60539 10.3946C1.53514 10.3244 1.50002 10.2345 1.50002 10.125L1.50002 1.875C1.50002 1.7655 1.53514 1.67562 1.60539 1.60537C1.67564 1.53512 1.76552 1.5 1.87502 1.5C1.98452 1.5 2.07439 1.53512 2.14464 1.60537C2.21489 1.67562 2.25002 1.7655 2.25002 1.875ZM9.02327 6.375L3.74964 6.375L3.74964 5.625L9.10502 5.625L6.25727 2.77725L6.78452 2.25L10.4993 5.96475L6.78452 9.6795L6.25727 9.14025L9.02327 6.375Z" fill="currentColor"/>
</g>
</svg>
